# xmcd
#
# Track frame offsets:
#	150
#	9910
#	22888
#	34813
#	45268
#	55938
#	65743
#	74433
#	84953
#	97460
#	112918
#	125340
#	136625
#	147363
#	155733
#	165105
#	175533
#	185288
#	195050
#	205655
#	215428
#	226348
#	237683
#	247808
#	259583
#	269828
#
# Disc length: 3745 seconds
#
# Revision: 0
# Processed by: cddbd v1.5.1PL2 Copyright (c) Steve Scherf et al.
# Submitted via: dBpowerAMP V4.0
#
DISCID=590e9f1a
DTITLE=Fats Domino - Fats Domino - The Originals - Vol.  6
DYEAR=1993
DGENRE=R&B
TTITLE0=My Blue Heaven
TTITLE1=Swanee River Hop (Swanee River Boogie)
TTITLE2=Second Line Jump (The 2nd Line Jump)
TTITLE3=Goodbye
TTITLE4=Careless Love
TTITLE5=I Love Her
TTITLE6=I'm In Love Again (Saving My Love For You)
TTITLE7=When My Dreamboat Comes Home
TTITLE8=Are You Going My Way (Little School Girl)
TTITLE9=Fats Blues
TTITLE10=My Heart Is In Your Hands (Something's Wrong)
TTITLE11=Fats' Frenzy (Blow Wind Blow)
TTITLE12=Blueberry Hill
TTITLE13=Honey Chile
TTITLE14=What's The Reason I'm Not Pleasing You
TTITLE15=Blue Monday
TTITLE16=So Long
TTITLE17=La La (Version 1)
TTITLE18=Troubles Of My Own
TTITLE19=You Done Me Wrong
TTITLE20=Reeling And Rocking
TTITLE21=The Fat Man's Hop (Fat Man Theme)
TTITLE22=Poor Poor Me (Last Walk)
TTITLE23=Trust In Me (Hey, Pretty Baby)
TTITLE24=Margie (Version 2)
TTITLE25=When The Saints Go Marching In
EXTD=R&B
EXTT0=
EXTT1=
EXTT2=
EXTT3=
EXTT4=
EXTT5=
EXTT6=
EXTT7=
EXTT8=
EXTT9=
EXTT10=
EXTT11=
EXTT12=
EXTT13=
EXTT14=
EXTT15=
EXTT16=
EXTT17=
EXTT18=
EXTT19=
EXTT20=
EXTT21=
EXTT22=
EXTT23=
EXTT24=
EXTT25=
PLAYORDER=
